<?xml version="1.0" encoding="UTF-8"?>
<!DOCTYPE svg PUBLIC "-//W3C//DTD SVG 1.1//EN" "http://www.w3.org/Graphics/SVG/1.1/DTD/svg11.dtd">
<!-- Creator: CorelDRAW -->
<svg xmlns="http://www.w3.org/2000/svg" xml:space="preserve" width="7.11111in" height="7.11111in"
    version="1.1"
    style="shape-rendering:geometricPrecision; text-rendering:geometricPrecision; image-rendering:optimizeQuality; fill-rule:evenodd; clip-rule:evenodd"
    viewBox="0 0 7111 7111"
    xmlns:xlink="http://www.w3.org/1999/xlink">
 <defs>
  <style type="text/css">
   <![CDATA[
    .fil0 {fill:white}
   ]]>
  </style>
 </defs>
 <g id="Layer_x0020_1">
  <metadata id="CorelCorpID_0Corel-Layer"/>
  <g id="_644323736">
   <g>
    <g>
     <path class="fil0" d="M6580 5609l-6043 0c-294,0 -531,-237 -531,-531l0 -3871c0,-294 237,-531 531,-531l6043 0c294,0 531,237 531,531l0 3871c0,294 -243,531 -531,531zm-6043 -4731c-185,0 -329,150 -329,329l0 3871c0,179 150,329 329,329l6043 0c185,0 329,-144 329,-329l0 -3871c0,-185 -150,-329 -329,-329l-6043 0z"/>
    </g>
    <g>
     <path class="fil0" d="M4575 6435c-40,0 -81,-23 -92,-63l-330 -826c-23,-52 6,-110 58,-133 52,-23 110,6 133,58l329 826c23,52 -5,109 -57,132 -12,0 -29,6 -41,6zm-2033 0c-12,0 -23,0 -35,-6 -52,-23 -75,-80 -58,-132l330 -826c23,-52 80,-76 132,-58 52,23 76,81 58,133l-329 826c-23,34 -64,63 -98,63z"/>
    </g>
    <g>
     <path class="fil0" d="M7007 4818l-6903 0c-58,0 -104,-46 -104,-104 0,-58 46,-104 104,-104l6903 0c58,0 104,46 104,104 0,58 -46,104 -104,104z"/>
    </g>
    <g>
     <path class="fil0" d="M5320 6435l-3523 0c-58,0 -104,-46 -104,-104 0,-58 46,-104 104,-104l3523 0c58,0 104,46 104,104 0,58 -46,104 -104,104z"/>
    </g>
    <g>
     <g>
      <path class="fil0" d="M1797 4356c-555,0 -1075,-353 -1254,-913 -225,-688 150,-1433 843,-1658 24,-6 52,-6 76,6 23,11 40,34 51,58l364 1120 1011 601c47,29 64,92 35,139 -162,277 -422,485 -728,583 -133,41 -266,64 -398,64zm-445 -2340c-520,225 -797,815 -618,1369 190,578 814,901 1398,711 231,-75 421,-214 560,-405l-953 -566c-23,-11 -35,-34 -46,-58l-341 -1051z"/>
     </g>
     <g>
      <g>
       <path class="fil0" d="M3298 3628c-17,0 -34,-6 -51,-12l-1040 -618c-29,-17 -47,-46 -47,-75 -5,-29 6,-64 29,-87l873 -843c40,-40 104,-40 144,0 144,150 248,318 306,508 116,358 75,751 -121,1075 -23,34 -58,52 -93,52zm-878 -740l838 497c121,-254 144,-549 58,-820 -41,-127 -104,-249 -191,-353l-705 676z"/>
      </g>
      <g>
       <path class="fil0" d="M2028 2842c-6,0 -18,0 -23,-6 -35,-5 -64,-34 -70,-69l-375 -1150c-18,-52 11,-109 63,-127 480,-156 1000,-28 1352,335 17,18 29,47 29,70 0,29 -12,52 -29,69l-878 849c-17,18 -46,29 -69,29zm-243 -1184l289 895 681 -658c-271,-231 -629,-318 -970,-237z"/>
      </g>
     </g>
    </g>
    <g>
     <path class="fil0" d="M6649 4298l-2825 0c-58,0 -104,-46 -104,-104 0,-58 46,-104 104,-104l2825 0c58,0 104,46 104,104 0,58 -52,104 -104,104z"/>
    </g>
    <g>
     <path class="fil0" d="M4639 4298c-58,0 -104,-46 -104,-104l0 -855 -399 0 0 855c0,58 -46,104 -104,104 -58,0 -104,-46 -104,-104l0 -953c0,-58 46,-104 104,-104l601 0c58,0 104,46 104,104l0 959c6,52 -41,98 -98,98z"/>
    </g>
    <g>
     <path class="fil0" d="M5540 4298c-58,0 -104,-46 -104,-104l0 -1138 -399 0 0 1138c0,58 -46,104 -104,104 -57,0 -104,-46 -104,-104l0 -1236c0,-58 47,-104 104,-104l601 0c58,0 104,46 104,104l0 1242c0,52 -46,98 -98,98z"/>
    </g>
    <g>
     <path class="fil0" d="M6429 4298c-57,0 -104,-46 -104,-104l0 -1629 -392 0 0 1629c0,58 -47,104 -104,104 -58,0 -104,-46 -104,-104l0 -1727c0,-58 46,-104 104,-104l595 0c57,0 104,46 104,104l0 1727c5,58 -41,104 -99,104z"/>
    </g>
    <g>
     <path class="fil0" d="M6424 1479l-2375 0c-57,0 -104,-46 -104,-104 0,-58 47,-104 104,-104l2375 0c57,0 104,46 104,104 0,58 -47,104 -104,104z"/>
    </g>
    <g>
     <path class="fil0" d="M6424 1929l-2375 0c-57,0 -104,-46 -104,-104 0,-57 47,-104 104,-104l2375 0c57,0 104,47 104,104 0,58 -47,104 -104,104z"/>
    </g>
   </g>
  </g>
 </g>
</svg>